# xmcd
#
# Track frame offsets: 
#        150
#        14108
#        24292
#        37848
#        49918
#        61129
#        72778
#        87176
#        98248
#        110559
#        122755
#        133857
#        146270
#        157979
#        171031
#        184696
#        197656
#        209344
#        222736
#        234999
#        246399
#        259187
#        270950
#        284142
#        295205
#        306693
#        317862
#        327631
#
# Disc length: 4516 seconds
#
# Revision: 0
# Processed by: cddbd v1.5.2PL0 Copyright (c) Steve Scherf et al.
# Submitted via: ExactAudioCopy v1.0b1
#
DISCID=b111a21c
DTITLE=Bobby Marchan - Get Down With It - The Soul Sides 1963-67
DYEAR=2011
DGENRE=R&B
TTITLE0=Meet Me In Church
TTITLE1=Funny Style
TTITLE2=There's Something About My Baby
TTITLE3=Just To Hold My Hand
TTITLE4=Just Be Yourself
TTITLE5=You Won't Do Right
TTITLE6=Everything A Poor Man Needs
TTITLE7=What Can I Do (Part 1)
TTITLE8=What Can I Do (Part 2)
TTITLE9=Hooked
TTITLE10=That's The Way It Goes
TTITLE11=I Gotta Sit Down And Cry
TTITLE12=Rockin' Pneumonia
TTITLE13=Half A Mind
TTITLE14=Shake Your Tambourine
TTITLE15=Someone To Take Your Place
TTITLE16=Sad Sack
TTITLE17=I Feel It Coming
TTITLE18=Help Yourself
TTITLE19=Just A Little Bit
TTITLE20=Hello Happiness
TTITLE21=I Just Want What Belongs To Me
TTITLE22=Too Late For Our Love
TTITLE23=I've Got A Thing Going On
TTITLE24=You Better Hold On
TTITLE25=Gimme Your Love
TTITLE26=Don't Worry About Tomorrow
TTITLE27=Get Down With It
EXTD=
EXTT0=
EXTT1=
EXTT2=
EXTT3=
EXTT4=
EXTT5=
EXTT6=
EXTT7=
EXTT8=
EXTT9=
EXTT10=
EXTT11=
EXTT12=
EXTT13=
EXTT14=
EXTT15=
EXTT16=
EXTT17=
EXTT18=
EXTT19=
EXTT20=
EXTT21=
EXTT22=
EXTT23=
EXTT24=
EXTT25=
EXTT26=
EXTT27=
PLAYORDER=
